<svg version="1.1" id="Layer_1" xmlns="http://www.w3.org/2000/svg" xmlns:xlink="http://www.w3.org/1999/xlink" x="0px" y="0px" viewBox="0 0 500 500" style="width: 165px;" xml:space="preserve" data-imageid="dream-1-2" imageName="Dream 1" class="illustrations_image">
<style type="text/css">
	.st0_dream-1-2{fill:#FFFFFF;}
	.st1_dream-1-2{fill:#231F20;}
	.st2_dream-1-2{fill:#D1D3D4;}
	.st3_dream-1-2{fill:#68E1FD;}
</style>
<g id="Cloud_dream-1-2">
	<path class="st0_dream-1-2" d="M311.4,177.2c9.1-5.9,22.4-21.6,29.5-25.4c27.5-14.7,61-14.2,85.4,6.6c14.9,12.7,19.2,36.7,18.3,55.4&#10;&#9;&#9;c-0.1,1.1,0,2.2,0.3,3.3c0.5,1,1.3,1.8,2.2,2.5c12.4,10.3,16.1,27.1,13.4,42.7c-1.8,10.4-6.2,20.2-11.3,29.4&#10;&#9;&#9;c-6.8,12.2-17,26.5-31.4,30.2c-0.8,0.2-1.6,0.4-2.3,0.8c-1.3,0.9-1.9,2.5-2.4,4c-8.8,22.5-34.1,19-51.7,10.1&#10;&#9;&#9;c-1.8,27.8-30.6,37.1-53,42.2c-13.2,3-26.9,3.6-40.3,1.7c-3.6-0.5-37.1-11.5-36.8-11.8c-12.7,12.8-31.3,19.2-49.2,18&#10;&#9;&#9;c-8.4-0.6-16.5-3-23.8-7.2c-1.7-1-19.6-15.4-17.6-16.5c-28.8,16.2-69.8,4.4-85.7-24.6c-8.2-15-8.4-36.6,5.7-46.3&#10;&#9;&#9;c-18.5-9.8-25.8-34.4-20-54.5c7-24.6,31.2-45.8,55.3-53.1s53.1-16.8,78.3-9.6c9.5-8.1,19.3-16.4,31.1-20.6s26.1-3.6,35.4,4.8&#10;&#9;&#9;c8.6-6.8,20.9-6.9,31.2-3.2c9.6,3.5,25.4,23.7,34,23.5C307.3,179.5,309.2,178.6,311.4,177.2z"/>
	<path class="st1_dream-1-2" d="M186.6,387.8c-1.5,0-3.1-0.1-4.6-0.2c-8.5-0.6-16.7-3-24.1-7.3c-0.8-0.5-15.6-11.9-17.9-16&#10;&#9;&#9;c-13.8,7.4-30.9,8.9-47.3,4.2C75.9,363.8,61.9,353,54.3,339c-10.4-19.1-5.7-38.3,5-46.5c-18.9-10.8-24.8-36.1-19.4-54.8&#10;&#9;&#9;c6.7-23.3,30.1-45.8,55.8-53.6l3.1-1c23.9-7.3,51-15.5,75.3-8.8c8.9-7.6,19.1-16.2,31-20.5c13.1-4.7,27-2.9,35.6,4.5&#10;&#9;&#9;c9.5-7.1,22.4-6.2,31.4-3c4.4,1.6,9.9,6.4,15.6,11.5c6.6,5.9,13.5,12,18,12h0.1c1.3,0,3.1-0.8,5.3-2.2l0,0c4.4-2.9,9.8-8.1,15-13.1&#10;&#9;&#9;c5.5-5.3,10.8-10.3,14.5-12.3c29.8-15.8,62.8-13.3,86.2,6.6c18.9,16.1,19,46.9,18.5,56c-0.1,1,0,2,0.3,3c0.5,0.9,1.2,1.6,2,2.2&#10;&#9;&#9;c11.6,9.7,16.7,25.9,13.7,43.4c-1.5,9-5.2,18.4-11.4,29.6c-9.7,17.5-20.1,27.5-31.8,30.5l-0.2,0c-0.7,0.1-1.3,0.4-1.9,0.7&#10;&#9;&#9;c-1,0.9-1.7,2-2,3.2l-0.1,0.4c-3,7.6-8,12.8-14.9,15.4c-9.7,3.7-23.5,2.1-36.9-4.4c-2.4,26.8-29.8,36.4-53.5,41.8&#10;&#9;&#9;c-13.3,3-27,3.6-40.5,1.8c-1.9-0.3-11.5-3.2-19.8-5.9c-11.4-3.7-15.4-5.1-16.8-5.8C219.8,381.3,203.4,387.8,186.6,387.8z&#10;&#9;&#9; M141.1,363.7c0.9,2.3,15.4,14.3,17.4,15.5c7.2,4.1,15.2,6.6,23.5,7.1c18.1,1.3,36.3-5.3,48.7-17.7l0,0c0.3-0.3,0.7-0.3,1,0&#10;&#9;&#9;c2.2,1.1,32.9,11.2,36.4,11.6c13.3,1.8,26.9,1.3,40-1.7c44.8-10.2,51.6-27.6,52.5-41.6c0-0.2,0.2-0.4,0.4-0.6&#10;&#9;&#9;c0.2-0.1,0.5-0.1,0.7,0c13.4,6.7,27.1,8.5,36.7,4.8c6.5-2.5,11.3-7.4,14.1-14.6l0.1-0.4c0.4-1.5,1.3-2.9,2.6-3.9&#10;&#9;&#9;c0.7-0.4,1.5-0.7,2.3-0.9l0.2-0.1c11.3-2.9,21.4-12.7,30.9-29.9c6.2-11.1,9.8-20.4,11.3-29.2c2.9-17-2-32.8-13.2-42.1&#10;&#9;&#9;c-1-0.7-1.8-1.7-2.4-2.8c-0.4-1.1-0.5-2.3-0.4-3.5c1.3-28.1-8.4-46.8-18-55c-23-19.6-55.4-22-84.6-6.5c-3.5,1.9-8.7,6.8-14.2,12.1&#10;&#9;&#9;c-5.3,5.1-10.7,10.3-15.2,13.2l0,0c-2.4,1.6-4.4,2.4-6,2.4h-0.1c-5,0-11.8-6-19-12.3c-5.4-4.8-11-9.7-15.1-11.2&#10;&#9;&#9;c-8.8-3.2-21.4-4-30.5,3.1c-0.3,0.2-0.6,0.2-0.9,0c-8.2-7.4-21.8-9.2-34.7-4.6c-11.8,4.2-21.9,12.9-30.8,20.5&#10;&#9;&#9;c-0.2,0.2-0.4,0.2-0.6,0.1c-24-6.9-51,1.4-74.8,8.6l-3.1,1c-25.2,7.7-48.3,29.8-54.8,52.7c-5.3,18.5,0.6,43.6,19.7,53.7&#10;&#9;&#9;c0.3,0.2,0.5,0.6,0.3,0.9c0,0.1-0.1,0.1-0.2,0.2c-10.8,7.5-15.7,26.5-5.4,45.4C63,352,76.6,362.6,93,367.3s33.6,3,47.2-4.6&#10;&#9;&#9;c0.3-0.2,0.8-0.1,0.9,0.3C141.3,363.2,141.3,363.5,141.1,363.7z"/>
	<path class="st2_dream-1-2" d="M162.2,280.7c-0.4,0-0.8-0.3-0.9-0.8c-1.3-8-6.4-15.8-15.3-24c-11.2-10.2-24.3-18.2-38.5-23.4&#10;&#9;&#9;c-11.3-4.1-20.6-5-28.3-2.8c-0.5,0.1-1-0.2-1.1-0.6c-0.1-0.5,0.1-1,0.6-1.1c0,0,0,0,0,0c8.1-2.3,17.8-1.4,29.4,2.8&#10;&#9;&#9;c14.5,5.3,27.8,13.3,39.1,23.7c9.3,8.5,14.5,16.7,15.9,25.1c0.1,0.5-0.3,1-0.8,1.1L162.2,280.7z"/>
	<path class="st2_dream-1-2" d="M362,299.9c-0.5,0-0.9-0.4-0.9-0.9c0-0.2,0.1-0.5,0.2-0.6c8.9-10,17.7-16.8,26.7-20.9&#10;&#9;&#9;c11.3-5.1,23.6-5.8,33.5-1.9c0.5,0.2,0.7,0.8,0.4,1.2c-0.2,0.4-0.7,0.6-1.1,0.5c-9.5-3.7-21.2-3.1-32.1,1.8&#10;&#9;&#9;c-8.8,4-17.3,10.7-26.1,20.4C362.5,299.7,362.3,299.9,362,299.9z"/>
	<path class="st0_dream-1-2" d="M143.8,335.7c2.3-2.4,5.6-3.5,8.8-4.6c3.6-1.3,7.3-2.5,11.2-2.7c7.9-0.3,15.2,4.2,21.9,8.4"/>
	<path class="st2_dream-1-2" d="M185.6,337.6c-0.1,0-0.3,0-0.4-0.1c-7.4-4.7-14-8.6-21.4-8.3c-3.8,0.1-7.4,1.4-11,2.6c-2.9,1-6.2,2.1-8.5,4.5&#10;&#9;&#9;c-0.3,0.3-0.7,0.3-1,0s-0.3-0.7,0-1c2.5-2.5,6-3.7,9-4.8c3.6-1.2,7.4-2.6,11.4-2.7c7.8-0.3,14.7,3.7,22.3,8.6&#10;&#9;&#9;c0.3,0.2,0.4,0.6,0.2,0.9C186,337.4,185.8,337.5,185.6,337.6L185.6,337.6z"/>
</g>
<g id="Character_dream-1-2">
	<path class="st0_dream-1-2" d="M196.7,196.1l-4.3-15.9c0,0-51.8,8.4-59.6,14.1s-9.5,10.1-17.5,8.4h-0.1c-3.8-1.3-6.9-5.4-9.4-8.3&#10;&#9;&#9;c-4.5-5.3-8.8-10.9-12.6-16.8c-3.4-5.1-6.4-10.5-8.9-16.1c-0.8-1.6-6.5-14.7,0-12.4c-1.9-2.7,2.4-2.7,3.8-1.3&#10;&#9;&#9;c-0.9-0.9-0.8-2.3,0.1-3.2c0.9-0.9,2.3-0.8,3.2,0.1c0.2,0.2,0.4,0.5,0.5,0.8c-0.5-0.8-0.2-1.8,0.6-2.2c0.1,0,0.1-0.1,0.2-0.1&#10;&#9;&#9;c0.9-0.3,1.9-0.1,2.6,0.5c0.7,0.6,1.3,1.4,1.8,2.2c2.9,4.5,6.3,8.8,10,12.6c2.7,2.8,6.2,7.6,10.1,8.7c4.5,1.2,12.5-2.1,16.9-3&#10;&#9;&#9;c7.2-1.5,14.3-3,21.5-4.5c11.9-2.4,23.7-4.9,35.7-7c4.4-0.8,8.8-1.5,13.2-2c1.8-0.2,4.8-0.9,6.5,0c5.6,2.8,18.7,36.3,18.7,36.3"/>
	<path class="st1_dream-1-2" d="M118.5,203.8c-1.1,0-2.2-0.1-3.3-0.4l-0.2-0.1c-3.5-1.1-6.4-4.6-8.7-7.4l-1-1.2c-4.6-5.3-8.8-10.9-12.7-16.8&#10;&#9;&#9;c-3.4-5.2-6.4-10.6-9-16.2c-1.1-2.4-4.6-10.5-2.4-13c0.5-0.5,1.2-0.8,1.9-0.7c-0.1-0.6,0.1-1.1,0.6-1.5c0.9-0.6,2.1-0.7,3.1-0.3&#10;&#9;&#9;c0-0.1,0-0.3,0-0.4c0.1-1.5,1.5-2.7,3-2.6c0.3,0,0.5,0.1,0.8,0.2c0.2,0.1,0.3,0.1,0.4,0.2c0.2-0.5,0.7-1,1.2-1.2&#10;&#9;&#9;c1.1-0.4,2.4-0.2,3.3,0.6c0.7,0.6,1.4,1.4,1.9,2.3c2.9,4.5,6.3,8.8,10,12.6c0.6,0.6,1.2,1.3,1.8,2c2.4,2.7,5,5.7,7.9,6.5&#10;&#9;&#9;s8-0.6,12-1.8c1.7-0.5,3.2-1,4.5-1.2c4.2-0.9,8.4-1.8,12.7-2.6l8.8-1.8c11.6-2.4,23.6-4.9,35.7-7c4.1-0.7,8.7-1.5,13.2-2l1.2-0.2&#10;&#9;&#9;c1.9-0.3,4.2-0.6,5.7,0.2c5.6,2.8,17.7,33.2,19.1,36.7c0.1,0.4,0,0.8-0.4,0.9c-0.4,0.1-0.8,0-0.9-0.4l0,0c-3.6-9.3-14-33.8-18.4-36&#10;&#9;&#9;c-1.2-0.6-3.2-0.3-4.9-0.1c-0.4,0.1-0.9,0.1-1.2,0.2c-4.5,0.5-9.1,1.3-13.1,2c-12.1,2.1-24,4.6-35.6,7l-8.8,1.8&#10;&#9;&#9;c-4.2,0.9-8.5,1.8-12.7,2.6c-1.2,0.2-2.8,0.7-4.4,1.2c-4.4,1.3-9.4,2.8-12.8,1.8s-6.1-4.1-8.6-6.9c-0.6-0.7-1.2-1.4-1.8-2&#10;&#9;&#9;c-3.8-3.9-7.2-8.2-10.1-12.8c-0.4-0.8-1-1.4-1.6-2c-0.5-0.5-1.3-0.6-1.9-0.4c-0.3,0.1-0.5,0.4-0.6,0.7c0,0.1,0,0.2,0,0.3&#10;&#9;&#9;c0.1,0.1,0.1,0.3,0.2,0.4c0.1,0.4-0.1,0.8-0.5,0.9c-0.3,0.1-0.6,0-0.8-0.2c-0.1-0.2-0.2-0.3-0.3-0.5c-0.2-0.3-0.5-0.5-0.8-0.6&#10;&#9;&#9;c-0.7-0.3-1.6,0-1.9,0.7c-0.1,0.2-0.1,0.3-0.1,0.5c-0.1,0.5,0.1,0.9,0.4,1.3c0.3,0.3,0.3,0.7,0,1c-0.3,0.3-0.7,0.3-1,0c0,0,0,0,0,0&#10;&#9;&#9;l0,0c-0.7-0.7-2.5-1-3-0.6c-0.2,0.2,0.2,0.8,0.3,0.9c0.2,0.2,0.2,0.6,0,0.8c-0.2,0.2-0.5,0.3-0.8,0.2c-0.6-0.2-1.4-0.4-1.8,0&#10;&#9;&#9;c-1.1,1.2,0.5,6.8,2.6,11.4c2.5,5.6,5.5,10.9,8.9,16c3.8,5.8,8,11.4,12.6,16.7l1,1.2c2.2,2.6,5,5.9,8.1,6.9c5.6,1.2,7.9-0.7,12-4.2&#10;&#9;&#9;c1.4-1.2,3-2.6,5-4c7.8-5.8,57.8-13.9,59.9-14.2c0.4-0.1,0.7,0.2,0.8,0.5l4.3,15.9c0.1,0.4-0.1,0.7-0.5,0.8c0,0,0,0,0,0&#10;&#9;&#9;c-0.4,0.1-0.8-0.1-0.9-0.5l-4.1-15.2c-5.9,1-51.6,8.6-58.7,13.9c-1.9,1.4-3.5,2.8-4.9,4C125,201.7,122.6,203.8,118.5,203.8z"/>
	<path class="st3_dream-1-2 targetColor" d="M331.3,181.5l15.2,4.9l26.9-13.9l-10-6.9l8-12.8c0,0,54.7,15.8,59.4,26.6c12.5,28.4-43.3,18-74.3,40.6&#10;&#9;&#9;c0,0-30.9,37.4-66.8,59.5c0,0-31.9-30.4-45.9-58.6l29.6-35.7c0,0-15.5-51,9.5-72c7.3-6.2,51.4,21.9,51.4,21.9l-10.7,9.6l-17-3.5&#10;&#9;&#9;V158C306.4,158,325.2,169.5,331.3,181.5z" style="fill: rgb(104, 225, 253);"/>
	<path class="st0_dream-1-2" d="M373.7,147.8c0-0.1,0-0.1,0-0.2c-0.3-1.6-1.6-2.8-3.2-3c0.5-5.8-1.4-11.5-5.3-15.9c-1.9-2.1-4.2-3.8-6.1-5.9&#10;&#9;&#9;s-3.4-4.8-3.1-7.7c-2.4,2.2-3.8,5.3-3.9,8.5c-2.4-3-3.6-6.7-3.5-10.6c-6,4.3-12.4,9.3-13.9,16.6c-0.9-2.9-0.9-6,0-8.9&#10;&#9;&#9;c-4.5,2.3-6.3,7.7-7.7,12.5c-1.1,3.4-1.9,6.9-2.4,10.4c-0.4,3.8,0.7,6.2,2,9.7c2.2,6,5.2,11.8,9.9,16.1c6,5.4,16.1,8.6,23,3.5&#10;&#9;&#9;c6.9-5.1,11.8-12.4,13.9-20.7C373.8,150.8,373.9,149.2,373.7,147.8z"/>
	<path class="st1_dream-1-2" d="M351.2,176.2c-5.7-0.2-11.1-2.4-15.2-6.3c-4.2-3.8-7.5-9.1-10.1-16.4l-0.4-1.1c-1.1-3-2-5.4-1.6-8.9&#10;&#9;&#9;c0.5-3.5,1.3-7,2.4-10.4l0.1-0.2c1.4-5,3.4-10.6,8.1-12.9c0.3-0.1,0.6-0.1,0.8,0.1c0.2,0.2,0.3,0.5,0.2,0.7&#10;&#9;&#9;c-0.6,1.9-0.8,3.9-0.6,5.9c2.3-5.8,7.6-10.1,13.4-14.3c0.2-0.1,0.5-0.1,0.7,0c0.2,0.1,0.4,0.4,0.4,0.6c-0.1,3,0.7,6,2.3,8.6&#10;&#9;&#9;c0.5-2.7,1.9-5.2,3.9-7.1c0.2-0.2,0.5-0.2,0.8-0.1c0.3,0.1,0.4,0.4,0.4,0.7c-0.3,3,1.7,5.8,2.9,7.1c0.9,1,1.9,2,3,2.9&#10;&#9;&#9;c1,0.9,2.1,1.9,3.1,3c3.8,4.3,5.8,10,5.5,15.7c1.6,0.5,2.8,1.8,3.1,3.4l0,0.2c0.3,1.6,0.2,3.2-0.3,4.8c-2.2,8.5-7.2,15.9-14.2,21.1&#10;&#9;&#9;C357.4,175.3,354.3,176.3,351.2,176.2z M333.5,122.2c-3.2,2.4-4.7,6.8-6,11.2v0.2c-1,3.3-1.8,6.7-2.3,10.1&#10;&#9;&#9;c-0.4,3.2,0.4,5.3,1.5,8.3l0.4,1.1c2.6,7,5.8,12.2,9.8,15.8c5.8,5.3,15.6,8.3,22.1,3.4c6.8-5,11.6-12.2,13.6-20.3&#10;&#9;&#9;c0.4-1.3,0.5-2.7,0.3-4.1l0,0v-0.2c-0.3-1.3-1.3-2.3-2.6-2.5c-0.2,0-0.4-0.1-0.5-0.2c-0.1-0.1-0.2-0.3-0.2-0.5&#10;&#9;&#9;c0.5-5.6-1.3-11.2-5.1-15.4c-1-1-2-2-3-2.9c-1.1-0.9-2.1-1.9-3.1-3c-1.7-1.8-2.8-4-3.3-6.4c-1.6,1.9-2.4,4.3-2.5,6.8&#10;&#9;&#9;c0,0.4-0.3,0.7-0.7,0.7c-0.2,0-0.4-0.1-0.6-0.3c-2.2-2.7-3.5-6.1-3.7-9.6c-5.9,4.4-11.2,8.9-12.5,15.3c-0.1,0.3-0.3,0.5-0.6,0.6&#10;&#9;&#9;c-0.3,0-0.6-0.2-0.7-0.5C333.2,127.4,333.1,124.7,333.5,122.2L333.5,122.2z"/>
	<path class="st0_dream-1-2" d="M316.5,170.6l-8.7,9.4c0,0-3,8.2,7.9,12.9s17.5-2,17.5-2l18.5-18.9c0,0-4.1-8.8,9.1-22.3&#10;&#9;&#9;c-10-2.4-19.2-7.5-26.6-14.7c0,0-16.4,13.1-20.6,21.1S316.5,170.6,316.5,170.6z"/>
	<path class="st1_dream-1-2" d="M323.3,195.2c-2.7,0-5.4-0.6-7.8-1.7c-11.5-4.9-8.4-13.7-8.3-13.8c0-0.1,0.1-0.2,0.1-0.2l8.2-8.9&#10;&#9;&#9;c-1.6-1.7-6.4-7.7-2.6-14.8c4.3-8.1,20.1-20.8,20.8-21.3c0.3-0.2,0.7-0.2,0.9,0c7.3,7.1,16.4,12.1,26.3,14.6&#10;&#9;&#9;c0.4,0.1,0.6,0.4,0.6,0.8c0,0.1-0.1,0.3-0.2,0.4c-12.7,12.9-9,21.4-9,21.5c0.1,0.3,0.1,0.6-0.1,0.8l-18.5,18.9&#10;&#9;&#9;C330.8,193.9,327.1,195.3,323.3,195.2z M308.4,180.3c-0.3,1-2,7.8,7.6,11.9c10.4,4.4,16.4-1.6,16.7-1.9l18.2-18.6&#10;&#9;&#9;c-0.7-2-2.4-10.1,8.5-21.7c-9.5-2.6-18.2-7.5-25.3-14.2c-2.7,2.2-16.2,13.4-20,20.5c-4,7.5,2.8,13.6,2.8,13.6&#10;&#9;&#9;c0.1,0.1,0.2,0.3,0.2,0.5c0,0.2-0.1,0.4-0.2,0.5L308.4,180.3z"/>
	<path class="st0_dream-1-2" d="M341.9,174.7c1.2,2.1,3.2,3.7,5.6,4.4c3.4,0.8,6.9-0.2,9.4-2.6c1-0.8,1.7-1.8,2.2-3c0.5-1.2,0.5-2.5-0.1-3.7&#10;&#9;&#9;c-0.7-1.3-2.2-2-3.6-2.7c-2-0.9-3-0.2-5-0.1c0.2,0,0.6-0.2,0.8-0.2"/>
	<path class="st1_dream-1-2" d="M349.8,180.1c-0.8,0-1.7-0.1-2.5-0.3c-2.5-0.7-4.7-2.4-6-4.7c-0.2-0.3,0-0.8,0.3-0.9c0.3-0.1,0.7,0,0.9,0.3&#10;&#9;&#9;c1.1,2,3,3.4,5.2,4c3.1,0.7,6.4-0.2,8.7-2.5c0.9-0.8,1.6-1.7,2-2.8c0.4-1,0.4-2.1,0-3.1c-0.6-1.1-1.8-1.7-3.2-2.4&#10;&#9;&#9;c-0.9-0.4-2-0.5-3-0.2c-0.5,0.1-1,0.2-1.5,0.2h-0.1c-0.4,0-0.7-0.3-0.7-0.7c0-0.4,0.3-0.7,0.7-0.7h0.1l0.2-0.1&#10;&#9;&#9;c0.2-0.1,0.4-0.1,0.6-0.1c0.1,0,0.2,0,0.3,0l0.4-0.1c1.3-0.3,2.7-0.2,3.9,0.4c1.3,0.6,3,1.4,3.9,3c0.7,1.3,0.7,2.9,0.1,4.2&#10;&#9;&#9;c-0.5,1.3-1.4,2.4-2.4,3.3C355.4,178.9,352.7,180,349.8,180.1z"/>
	<path class="st1_dream-1-2" d="M309.1,178.6c0,0,4.2,3.1,11.3,2.2s9.2-4.4,9.2-4.4s-8,0-13.1-5.8L309.1,178.6z"/>
	<path class="st1_dream-1-2" d="M317.9,181.6c-3.2,0.1-6.4-0.8-9.2-2.5c-0.2-0.1-0.3-0.3-0.3-0.5c0-0.2,0-0.4,0.2-0.5l7.4-8&#10;&#9;&#9;c0.1-0.1,0.3-0.2,0.5-0.2c0.2,0,0.4,0.1,0.5,0.2c4.9,5.5,12.5,5.6,12.6,5.6c0.3,0,0.5,0.1,0.6,0.4c0.1,0.2,0.1,0.5,0,0.7&#10;&#9;&#9;c-0.1,0.2-2.4,3.9-9.7,4.8C319.7,181.6,318.8,181.6,317.9,181.6z M310.2,178.4c3.1,1.6,6.7,2.2,10.1,1.7c2.9-0.2,5.6-1.3,7.8-3.1&#10;&#9;&#9;c-4.4-0.4-8.5-2.3-11.7-5.4L310.2,178.4z"/>
	<path class="st0_dream-1-2" d="M336.9,150.4c0,0-10.4,3.3-10.3,5.4s3.9,3.9,3.9,3.9"/>
	<path class="st1_dream-1-2" d="M330.6,160.4c-0.1,0-0.2,0-0.3-0.1c-0.4-0.2-4.2-2-4.4-4.4s6.7-4.8,10.8-6.1c0.4-0.1,0.8,0,0.9,0.4&#10;&#9;&#9;c0.1,0.4,0,0.8-0.4,0.9c0,0-0.1,0-0.1,0c-5.1,1.6-9.7,3.8-9.8,4.7c0.1,1.4,2.6,2.9,3.5,3.3c0.3,0.2,0.5,0.6,0.4,0.9c0,0,0,0,0,0&#10;&#9;&#9;C331.1,160.2,330.8,160.4,330.6,160.4z"/>
	<path class="st1_dream-1-2" d="M331.2,168.5c-0.1,0-0.1,0-0.2,0c-0.1,0-10.6-3-11.8-14.1c-0.1-0.4,0.2-0.7,0.6-0.8s0.7,0.2,0.8,0.6&#10;&#9;&#9;c0,0,0,0,0,0.1c1.1,10.1,10.4,12.8,10.8,12.9c0.4,0.1,0.6,0.5,0.5,0.9C331.8,168.3,331.5,168.5,331.2,168.5L331.2,168.5z"/>
	<path class="st1_dream-1-2" d="M347.1,156H347c-2.5-0.6-4.2-1.5-5-2.8c-0.4-0.6-0.5-1.3-0.4-2c0.1-0.4,0.5-0.6,0.9-0.5&#10;&#9;&#9;c0.3,0.1,0.5,0.4,0.5,0.8c-0.1,0.7,0.6,2.3,4.4,3.1c0.4,0.1,0.6,0.5,0.5,0.8C347.8,155.8,347.5,156,347.1,156L347.1,156z"/>
	<path class="st1_dream-1-2" d="M334.2,146.8H334c-0.1,0-2.8-0.6-3.4-4.4c0-0.4,0.2-0.7,0.6-0.8c0.4,0,0.7,0.2,0.8,0.5&#10;&#9;&#9;c0.4,2.7,2.3,3.2,2.3,3.2c0.4,0.1,0.6,0.5,0.5,0.8C334.7,146.6,334.5,146.8,334.2,146.8L334.2,146.8z"/>
	<path class="st1_dream-1-2" d="M251.3,226.9c0,0-16.8-47.4-18.4-48.5s-43.2,16.2-43.2,16.2L205,252C205,252,251.6,250.9,251.3,226.9z"/>
	<path class="st1_dream-1-2" d="M205,252.7c-0.3,0-0.6-0.2-0.7-0.5L189,194.7c-0.1-0.3,0.1-0.7,0.4-0.8c19.2-8,42.4-17.2,43.9-16.1&#10;&#9;&#9;s14.7,37.7,18.7,48.8c0,0.1,0,0.2,0,0.2c0.1,10.2-8,17.9-23.6,22.3C220.8,251.2,212.9,252.4,205,252.7L205,252.7z M190.5,194.9&#10;&#9;&#9;l15,56.4c5.2-0.2,45.1-2.7,45.1-24.3c-6.5-18.2-16.4-45.4-18.1-48C229.7,179.1,205.7,188.6,190.5,194.9L190.5,194.9z"/>
	<path class="st0_dream-1-2" d="M208.7,216.8c0,0-47.9-31.3-56.1-26.2s-33.4,99-35.6,99.5c-9.2,2.3-25.1,5.5-25.6,5.4&#10;&#9;&#9;c-2.8-0.4-16.1-1.8-12.1,4.6c3.2,5.2,9.2,4.8,14.5,6c7.1,1.7,8.6,2.2,15.7,3.7c6.5,1.3,13,2.6,19.5,3.9c3.8,0.7,7.6-1.1,9.4-4.6&#10;&#9;&#9;l31.9-76.4l20.5,15.3L208.7,216.8z"/>
	<path class="st1_dream-1-2" d="M130.6,314.6c-0.6,0-1.2-0.1-1.8-0.2c-6.3-1.2-12.9-2.5-19.5-3.9c-4.7-1-6.9-1.5-10-2.3&#10;&#9;&#9;c-1.6-0.4-3.3-0.8-5.8-1.4c-1.2-0.3-2.5-0.5-3.7-0.7c-4.2-0.7-8.6-1.4-11.3-5.7c-1-1.5-1.1-2.9-0.4-3.9c2-3,10.6-2.1,13.2-1.7&#10;&#9;&#9;c1,0,16.2-3.1,25.2-5.3c1-1.5,4.8-14,8.8-27.1c11.2-36.3,21.6-69.2,26.7-72.4c3.7-2.3,14.1,1.4,31.9,11.1c12.9,7.1,24.9,15,25,15&#10;&#9;&#9;c0.3,0.2,0.4,0.6,0.2,0.9l-18,31.1c-0.1,0.2-0.3,0.3-0.5,0.3c-0.2,0-0.4,0-0.6-0.1l-19.8-14.6L139,309.5&#10;&#9;&#9;C137.4,312.6,134.1,314.6,130.6,314.6z M85.7,295.8c-3,0-5.5,0.4-6.2,1.5c-0.4,0.5-0.2,1.4,0.4,2.4c2.3,3.8,6.2,4.4,10.3,5&#10;&#9;&#9;c1.2,0.2,2.6,0.4,3.8,0.7c2.4,0.6,4.2,1,5.8,1.4c3,0.8,5.2,1.3,9.9,2.3c6.6,1.4,13.2,2.7,19.5,3.9c3.5,0.7,7-1.1,8.6-4.2l31.9-76.4&#10;&#9;&#9;c0.1-0.2,0.3-0.4,0.5-0.4c0.2-0.1,0.4,0,0.6,0.1l19.9,14.7l17.3-29.9c-13.6-8.9-48.5-29.7-54.8-25.8c-5.1,3.1-17.8,44.3-26.1,71.6&#10;&#9;&#9;c-7.8,25.5-8.7,27.7-9.7,28c-8.4,2.1-25,5.5-25.9,5.4C89.4,295.9,87.5,295.8,85.7,295.8L85.7,295.8z"/>
	<path class="st1_dream-1-2" d="M289.6,279.5c0,0-29.1,24.7-55.2,19.9s-58.6-48.6-58.6-48.6l28.8-40.8l46.7,16.9&#10;&#9;&#9;C251.3,226.9,286.3,268,289.6,279.5z"/>
	<path class="st1_dream-1-2" d="M241.3,300.6c-2.3,0-4.7-0.2-7-0.6c-11-2-24.2-10.8-39.5-26.3c-7-7.1-13.5-14.7-19.6-22.6&#10;&#9;&#9;c-0.2-0.2-0.2-0.6,0-0.8l28.8-40.8c0.2-0.3,0.5-0.4,0.8-0.2l46.7,16.9c0.1,0,0.2,0.1,0.3,0.2c1.4,1.7,35.2,41.4,38.5,52.9&#10;&#9;&#9;c0.1,0.3,0,0.5-0.2,0.7C289.8,280.2,265.4,300.6,241.3,300.6z M176.7,250.8c3.4,4.4,33.6,43.5,57.9,47.9&#10;&#9;&#9;c24,4.4,50.9-16.7,54.3-19.5c-3.8-11.4-35.7-49.1-37.9-51.8l-46-16.7L176.7,250.8z"/>
	<path class="st0_dream-1-2" d="M255.3,240c-0.1,0-0.3,0-0.4-0.1c-21.9-13.9-50.4-29.2-50.6-29.3c-0.3-0.2-0.5-0.6-0.3-0.9c0,0,0,0,0,0&#10;&#9;&#9;c0.2-0.3,0.6-0.5,0.9-0.3c0,0,0,0,0,0c0.3,0.1,28.8,15.4,50.7,29.4c0.3,0.2,0.4,0.6,0.2,1c0,0,0,0,0,0&#10;&#9;&#9;C255.7,239.9,255.5,240,255.3,240z"/>
	<path class="st1_dream-1-2" d="M341.5,191.9c-0.2,0-0.4-0.1-0.5-0.2c-0.3-0.3-0.3-0.7,0-1c0,0,0,0,0,0c14-13.5,43.4-23,43.7-23.1&#10;&#9;&#9;c0.4-0.1,0.8,0.1,0.9,0.4c0.1,0.4-0.1,0.8-0.4,0.9c0,0,0,0,0,0c-0.3,0.1-29.4,9.6-43.1,22.8C341.9,191.8,341.7,191.9,341.5,191.9z"/>
	<path class="st1_dream-1-2" d="M306.5,141.7c-0.4,0-0.7-0.3-0.7-0.7c0.1-4-1-7.9-3.1-11.3c-0.2-0.3-0.2-0.7,0.1-1c0,0,0,0,0,0&#10;&#9;&#9;c0.3-0.2,0.8-0.2,1,0.1c0,0,0,0,0,0c0.1,0.2,3.4,4.6,3.4,12.1C307.2,141.4,306.9,141.7,306.5,141.7&#10;&#9;&#9;C306.5,141.7,306.5,141.7,306.5,141.7z"/>
</g>
<g id="Cloud_Foreground_dream-1-2">
	<path class="st0_dream-1-2" d="M356.9,239c3.4-11.1,9.2-21.3,17-29.9c4.6-5.2,10.3-10.1,17.5-12.8c12.1-4.4,26.2-1.3,36.1,5"/>
	<path class="st2_dream-1-2" d="M356.9,239.7h-0.2c-0.4-0.1-0.6-0.5-0.5-0.9c3.4-11.2,9.3-21.5,17.2-30.1c5.9-6.6,11.5-10.7,17.8-12.9&#10;&#9;&#9;c11.1-4.1,25.5-2.1,36.8,5.1c0.3,0.2,0.4,0.6,0.2,1c0,0,0,0,0,0c-0.2,0.3-0.6,0.4-1,0.2c0,0,0,0,0,0c-10.9-6.9-24.8-8.8-35.5-4.9&#10;&#9;&#9;c-6,2.2-11.5,6.2-17.2,12.6c-7.7,8.5-13.5,18.6-16.9,29.6C357.4,239.6,357.1,239.7,356.9,239.7z"/>
	<path class="st0_dream-1-2" d="M381.5,280.3c-5.1-6.4-12-11.1-19.2-15c-8.4-4.5-17.7-8-27.1-7.2s-19,6.6-21.6,15.7&#10;&#9;&#9;c-21.4-19.8-54.8-18.4-74.6,3c-5.9,6.4-10.1,14.1-12.3,22.5c-22.7-9-51.6,2.7-61.5,25.1"/>
	<path class="st2_dream-1-2" d="M165.1,325.1c-0.1,0-0.2,0-0.3-0.1c-0.4-0.2-0.5-0.6-0.4-0.9c10-22.5,38.6-34.4,61.7-25.8&#10;&#9;&#9;c7.8-28.5,37.3-45.2,65.7-37.4c7.9,2.2,15.1,6.1,21.3,11.5c2.9-8.2,11.8-14.4,21.9-15.1c8.2-0.6,17,1.7,27.5,7.3&#10;&#9;&#9;c8.8,4.7,15,9.5,19.5,15.2c0.2,0.3,0.2,0.8-0.1,1c0,0,0,0,0,0c-0.3,0.2-0.7,0.2-1-0.1c0,0,0,0,0,0c-4.4-5.5-10.4-10.2-19-14.8&#10;&#9;&#9;c-10.3-5.5-18.8-7.8-26.7-7.1c-10,0.8-18.6,7-21,15.2c-0.1,0.2-0.3,0.4-0.5,0.5c-0.2,0.1-0.5,0-0.7-0.2&#10;&#9;&#9;c-21.1-19.5-54.1-18.1-73.6,3c-5.8,6.3-10,13.9-12.1,22.2c-0.1,0.2-0.2,0.4-0.4,0.5c-0.2,0.1-0.4,0.1-0.6,0&#10;&#9;&#9;c-22.5-9-50.8,2.6-60.6,24.7C165.7,324.9,165.4,325.1,165.1,325.1z"/>
</g>
</svg>