<svg version="1.1" id="Layer_1" xmlns="http://www.w3.org/2000/svg" xmlns:xlink="http://www.w3.org/1999/xlink" x="0px" y="0px" viewBox="0 0 500 500" style="width: 165px;" xml:space="preserve" data-imageid="dream-2" imageName="Dream" class="illustrations_image">
<style type="text/css">
	.st0_dream-2{fill:#FF8D8D;}
	.st1_dream-2{opacity:0.32;fill:url(#SVGID_1_);enable-background:new    ;}
	.st2_dream-2{fill:#835E41;}
	.st3_dream-2{opacity:0.24;fill:#552800;enable-background:new    ;}
	.st4_dream-2{fill:#F6F5F0;}
	.st5_dream-2{fill:#68E1FD;}
	.st6_dream-2{fill:#EF9A9A;}
	.st7_dream-2{fill:#552800;}
	.st8_dream-2{fill:#FCCA4C;}
	.st9_dream-2{opacity:0.32;fill:url(#SVGID_00000013176685262134429580000005022200252904028076_);enable-background:new    ;}
	.st10_dream-2{fill:#5ED18D;}
	.st11_dream-2{fill:#FFFFFF;}
	.st12_dream-2{fill:url(#SVGID_00000111884199221951517480000018004162594256334737_);}
	.st13_dream-2{fill:#636D27;}
	.st14_dream-2{fill:url(#SVGID_00000078727350044740456680000004198927888281761184_);}
	.st15_dream-2{fill:url(#SVGID_00000117659843331625710750000015371655711071319952_);}
</style>
<path id="field_dream-2" class="st0_dream-2" d="M243,398.6L22.5,268.3c-7-3.9-13-10.4-6.2-14.6l221.3-127.5c3.3-2.1,8.4-3.4,11.7-1.4L480.8,259&#10;&#9;c7,4.1,8.3,15.5,1.3,19.5L272,398.4C263.1,403.6,252,403.7,243,398.6z"/>
<g id="sleep_dream-2">
	
		<linearGradient id="SVGID_1_-dream-2" gradientUnits="userSpaceOnUse" x1="126.0402" y1="184.8397" x2="218.0702" y2="246.8397" gradientTransform="matrix(1 0 0 -1 0 502)">
		<stop offset="0" style="stop-color:#FF8D8D;stop-opacity:0"/>
		<stop offset="0.27" style="stop-color:#DA776E;stop-opacity:0.22"/>
		<stop offset="0.81" style="stop-color:#793E1E;stop-opacity:0.79"/>
		<stop offset="0.99" style="stop-color:#552800"/>
	</linearGradient>
	<path class="st1_dream-2" d="M74.6,292.5c3.6,1.1,7.5,5.7,11.2,6.4c2.3,0.5,6.7,5.9,9,6.1l58.6,30.2l200.6-95.6l-99.8-67.3L62.9,283.7&#10;&#9;&#9;C68.8,288.1,67.7,290.4,74.6,292.5z"/>
	<path class="st2_dream-2" d="M257.2,147.6v-42.4c0-4.1,3.3-7.5,7.5-7.5c1.1,0,2.3,0.3,3.3,0.8l76,37.3c6.1,3,9.9,9.1,9.9,15.9V199&#10;&#9;&#9;L257.2,147.6z"/>
	<polyline class="st2_dream-2" points="353.9,199 353.9,239.6 345.1,244.3 345.1,193.2 &#9;"/>
	<path class="st3_dream-2" d="M257.2,147.6v-42.4c0-4.1,3.3-7.5,7.5-7.5c1.1,0,2.3,0.3,3.3,0.8l76,37.3c6.1,3,9.9,9.1,9.9,15.9V199&#10;&#9;&#9;L257.2,147.6z"/>
	<polyline class="st3_dream-2" points="353.9,199 353.9,239.6 345.1,244.3 345.1,193.2 &#9;"/>
	<path class="st2_dream-2" d="M252.1,150v-41.6c0-4.1,3.3-7.3,7.3-7.3c1.1,0,2.2,0.3,3.2,0.8l74.6,36.7c5.9,2.9,9.7,9,9.7,15.6v46.5&#10;&#9;&#9;L252.1,150z"/>
	<polygon class="st2_dream-2" points="345.1,244.3 336.4,239.9 336.4,205.7 345.1,205.7 &#9;"/>
	<polygon class="st2_dream-2" points="177.4,307.1 345.1,222.4 347,200.6 344.1,199 177.4,282.5 &#9;"/>
	<polygon class="st3_dream-2" points="177.4,307.1 345.1,222.4 347,200.6 344.1,199 177.4,282.5 &#9;"/>
	<polyline class="st4_dream-2" points="343.1,187.2 343.1,199.9 288.7,227.6 281.4,217.1 &#9;"/>
	<polyline class="st3_dream-2" points="343.1,187.2 343.1,199.9 288.7,227.6 281.4,217.1 &#9;"/>
	<path class="st4_dream-2" d="M205.9,173.7l52.1-29.1l82.7,38.9c2.1,1,3,3.5,2,5.6c-0.4,0.8-1,1.5-1.9,1.9l-48.2,24.8L205.9,173.7z"/>
	<path class="st5_dream-2 targetColor" d="M248.4,160.6c-1.3-6.3,1.4-12.9,3.8-18.6c2.1-4.8,4.5-9.4,7.4-13.8c3-4.8,6.5-9.8,12.7-10.1&#10;&#9;&#9;c2.7,0,5.3,0.4,7.8,1.2c13.2,3.4,26,8.3,38.1,14.5c9.2,4.9,20.8,10.1,20.6,23c-0.2,9.7-15.4,37.2-25.3,38.7&#10;&#9;&#9;c-4.8,0.7-10.9-2.7-15.1-4.6c-7.8-3.4-15.4-7.3-23-11.3c-5.9-3.1-11.6-6.3-17.6-9.2c-3.4-1.6-7.3-4-8.7-7.7&#10;&#9;&#9;C248.8,162.1,248.6,161.4,248.4,160.6z" style="fill: rgb(104, 225, 253);"/>
	<path class="st3_dream-2" d="M310.1,169.3c-3.7,7.5-5.9,15.6-6.5,23.9c4.5,1.8,8.1,2.7,10,2.5c7.2-1.1,12.9-11.1,16.2-16.6&#10;&#9;&#9;c5.6-9.2,13-20.8,6.6-31.6C325.5,141.8,313.8,162,310.1,169.3z"/>
	<path class="st6_dream-2" d="M270.9,184.9c0,0,12.4,9,17.2,10.3s10.2-3.4,12.5-6.1s-9.8-32.8-9.8-32.8l-4.5,3.2l3.6,23.6&#10;&#9;&#9;c-1.6,0.4-16.2-8.8-16.2-8.8"/>
	<path class="st6_dream-2" d="M278.8,164.7l-7,4.8c0,0-5.1-4.1-5.2-8s10.8-1.2,10.8-1.2"/>
	<polygon class="st6_dream-2" points="277.2,165.8 273.2,168.6 270.5,160.4 275.4,160.7 &#9;"/>
	<path class="st6_dream-2" d="M298,147.4c0.1,1.8-9.6,20-17.2,19.8s-7.8-14-7.8-14s-1.6-5.1,0.7-6.4s4.9-1.2,6,0.9s-0.3-4.3,4.9-5.7&#10;&#9;&#9;S297.8,142.6,298,147.4z"/>
	<path class="st7_dream-2" d="M283.7,150.6c-0.4,0.4,5.9,5.1,6.6,5.5c2.3,1.3,6.2,2.5,7.5-0.9c1.2-3.1,2.3-8,0.3-12.4&#10;&#9;&#9;c-3.3-7-12.1-10.7-21-6.4S261,151.3,264,158.1s10.4,4.6,10.4,4.6l3.3-6.2c0,0-4.3-4.8,0.1-5.5c3.2-0.5,2.8,3,2.8,3L283.7,150.6z"/>
	<path class="st8_dream-2" d="M271.8,169.6c0,0,3.5,5.2,3.8,8.7S264,204,255.8,209s-16.7-7-18-10.1s4.2-36,10.7-40.8s18.3,1,20,4.5"/>
	<path class="st5_dream-2 targetColor" d="M270.8,202.1c-13-15.7-22-24.8-47.5-23.8l-17.6-8.8l-101,49.5l79.3,50.2v21.1l112.5-56.8V215L270.8,202.1z" style="fill: rgb(104, 225, 253);"/>
	<polygon class="st3_dream-2" points="296.5,215 184,269.2 184,290.3 296.5,233.6 &#9;"/>
	<path class="st2_dream-2" d="M175.9,325l8.1-4v-59.9c0,0,0-9.3-21.4-20.2s-66.7-33.8-68-33.5s-13-2.2-15.5,16.4s0,54.6,0,54.6l7.4,3.1&#10;&#9;&#9;l7.4-4V254l67.4,31.4L175.9,325"/>
	<path class="st3_dream-2" d="M175.9,325l8.1-4v-59.9c0,0,0-9.3-21.4-20.2s-66.7-33.8-68-33.5s-13-2.2-15.5,16.4s0,54.6,0,54.6l7.4,3.1&#10;&#9;&#9;l7.4-4V254l67.4,31.4L175.9,325"/>
	<path class="st2_dream-2" d="M175.9,285.3v-24.2c0,0,0-8.7-9.6-13.4s-76-37.9-76.3-36.9s-9-1.9-10.9,13v54.6l7.4,3.1v-19.2l81.3,41.9V321&#10;&#9;&#9;l8.1,4L175.9,285.3z"/>
</g>
<g id="plant_dream-2">
	
		<linearGradient id="SVGID_00000004533449010349118280000006838923743883721903_-dream-2" gradientUnits="userSpaceOnUse" x1="397.771" y1="212.7277" x2="422.961" y2="236.4277" gradientTransform="matrix(1 0 0 -1 0 502)">
		<stop offset="0" style="stop-color:#552800;stop-opacity:0"/>
		<stop offset="0.99" style="stop-color:#552800"/>
	</linearGradient>
	<path style="opacity:0.32;fill:url(#SVGID_00000004533449010349118280000006838923743883721903_);enable-background:new    ;" d="&#10;&#9;&#9;M392.7,294.5c3.6,1.1,7.2,2.2,10.9,2.9c2.2,0.4,4.5,0.7,6.8,0.8l3.8-2.6l26.4-19.6l-20.2-6.7L372.6,286&#10;&#9;&#9;C378.5,290.2,385.8,292.4,392.7,294.5z"/>
	<path class="st5_dream-2 targetColor" d="M430,254.6c-4.8-0.4-9.8-1.9-13.3-5.1v14.1c0,8.1,6.6,14.7,14.7,14.7c0,0,0,0,0,0l0,0&#10;&#9;&#9;c8.1,0,14.7-6.6,14.7-14.7v-14.4C441.1,251.3,435.4,255,430,254.6z" style="fill: rgb(104, 225, 253);"/>
	<ellipse class="st10_dream-2" cx="431.4" cy="249.4" rx="14.7" ry="7.8"/>
	<path class="st10_dream-2" d="M431.4,250.7c0,0-10-1.5-12.6-17.6C418.8,233.1,427.3,237.8,431.4,250.7z"/>
	<path class="st10_dream-2" d="M432.9,248.6c0,0-11.5-20.6,0-34.4C436.4,225.5,436.4,237.4,432.9,248.6z"/>
	<path class="st10_dream-2" d="M431.4,235.7c0,0-10-1.5-12.6-17.6C418.8,218.1,427.3,222.8,431.4,235.7z"/>
	<path class="st10_dream-2" d="M432.6,242.3c0,0-2.5-9.8,11.4-18.4C444,223.9,443,233.5,432.6,242.3z"/>
	<ellipse class="st7_dream-2" cx="431.4" cy="249.4" rx="14.7" ry="7.8"/>
	<path class="st10_dream-2" d="M431.4,250.7c0,0-10-1.5-12.6-17.6C418.8,233.1,427.3,237.8,431.4,250.7z"/>
	<path class="st10_dream-2" d="M432.9,248.6c0,0-11.5-20.6,0-34.4C436.4,225.5,436.4,237.4,432.9,248.6z"/>
	<path class="st10_dream-2" d="M431.4,235.7c0,0-10-1.5-12.6-17.6C418.8,218.1,427.3,222.8,431.4,235.7z"/>
	<path class="st10_dream-2" d="M432.6,242.3c0,0-2.5-9.8,11.4-18.4C444,223.9,443,233.5,432.6,242.3z"/>
</g>
<g id="hand_dream-2">
	<path class="st6_dream-2" d="M244.9,168.8c-0.8,0.4-5.5,14.7-4.4,17.8s18.9,16.4,19.4,17.2s2.2,9.2,4.2,10.6s6.6,1.8,8.1,1.1s3-4.2,2.4-5.2&#10;&#9;&#9;s-7-7.2-7.9-8.8s-15.4-18-15-19.1s2.4-10.1,2.4-10.1S247.3,167.7,244.9,168.8z"/>
</g>
<g id="dream_dream-2">
	<path class="st11_dream-2" d="M331.4,172.1c-0.1-3.6-3-6.4-6.6-6.4c-3.3,0-6.1,2.2-6.8,5.4c-0.3,1.7-0.1,3.5,0.7,5.1&#10;&#9;&#9;c0.8,1.5,2.3,2.5,4.1,2.6c0.5,0.1,1.1,0.1,1.6,0.1c0.7,0,1.4-0.2,2.1-0.5C329.4,177.6,331.4,175,331.4,172.1z"/>
	<path class="st11_dream-2" d="M354.1,215.8c-0.3-0.2-0.5-0.5-0.8-0.7c0.3-2.9-0.3-5.8-1.8-8.3c-2.2-3.7-6.4-7.4-11-7.2&#10;&#9;&#9;c-5.3,0.2-9.2,5-9.1,10.1c0,0.4,0,0.7,0.1,1.1c-1.3,0.5-2.4,1.2-3.5,2.1c-4.3,4.2-4.4,11.1-0.2,15.4c3.1,3.2,7.8,4.2,11.9,2.5&#10;&#9;&#9;c0.3-0.1,0.5-0.2,0.8-0.4l0,0c4.2,2.5,9.7,2.4,13.3-1.2C357.6,225.6,357.7,219.6,354.1,215.8C354.1,215.8,354.1,215.8,354.1,215.8z&#10;&#9;&#9;"/>
	<path class="st11_dream-2" d="M368,282.4c-2.8-8-10.1-12.9-18.4-13.9c-0.6-0.1-1.3-0.1-1.9-0.1c-2-6.1-6.7-10.9-12.8-13&#10;&#9;&#9;c-2.8-1-5.8-1.4-8.7-1.3c-0.7-1-1.4-1.9-2.2-2.7c-3.1-9.5-10.9-17.4-21.6-18.3s-22.6,7.4-29,17.7l-0.3-0.1&#10;&#9;&#9;c-9.6-2.6-19.7,1.4-25,9.8c-3.5,5.8-4.4,12.8-2.3,19.2c-10.7,3.6-17,20.7-12.7,31.6c2.9,7.3,9.4,10.6,16.5,12.1&#10;&#9;&#9;c-0.6,2.9-0.6,6-0.1,8.9c1.5,8.7,7.5,16.1,16.1,18.5c6.2,1.7,12.8,1.3,18.7-1.3c6.9,7.6,19.2,10.5,30.1,6.4&#10;&#9;&#9;c5.9-2.1,10.9-6.1,14.3-11.3c10.1,2.8,21.5,0,28.3-9.6c4.4-6.2,8-14.5,6.1-22.1c1.5-1.4,2.7-3.1,3.6-4.9&#10;&#9;&#9;C370.8,300.7,370.7,290.3,368,282.4z"/>
	<path class="st8_dream-2" d="M258.5,298.7c-5.9,3.7-11.5,12.2-5.7,18.3c7.3,7.8,1.9,27.2,29.9,27s23.9-11,40.5-10.7&#10;&#9;&#9;c9.4,0.2,31.8-4,27.8-17.9c-1.2-4.3-5.5-5.6-9-7.4c-4.8-2.4-9.9-4.4-15.1-6c-14.8-4.8-30.5-7.7-46.1-7.5&#10;&#9;&#9;c-7.1,0.1-14.9,0.1-21.4,3.6C259.1,298.3,258.8,298.5,258.5,298.7z"/>
	
		<linearGradient id="SVGID_00000086659467774197621130000005514067407481732253_-dream-2" gradientUnits="userSpaceOnUse" x1="254.32" y1="187.59" x2="291.99" y2="187.59" gradientTransform="matrix(1 0 0 -1 0 502)">
		<stop offset="1.000000e-02" style="stop-color:#FCCA4C;stop-opacity:0"/>
		<stop offset="1" style="stop-color:#552800;stop-opacity:0.5"/>
	</linearGradient>
	<polygon style="fill:url(#SVGID_00000086659467774197621130000005514067407481732253_);" points="290.4,305.6 254.3,314 &#10;&#9;&#9;264.6,323.2 292,308 &#9;"/>
	<path class="st13_dream-2" d="M288.1,270L288.1,270C288.1,270,288.1,269.9,288.1,270c-0.1-0.8,1-0.9,1.2-0.3c0,0,0,0.1,0,0.1&#10;&#9;&#9;c0,0,0,0.1,0,0.1c0.7,5.5,1,11.1,0.9,16.6c0,0.4-0.3,0.6-0.7,0.6c-0.2,0-0.4-0.1-0.6-0.3c-0.3,0.2-0.7,0.1-0.9-0.3&#10;&#9;&#9;c0-0.1-0.1-0.2-0.1-0.2C287.7,280.9,287.7,275.4,288.1,270z"/>
	<path class="st13_dream-2" d="M275.6,282.5c0-0.1,0.1-0.2,0.2-0.2c0-0.1,0-0.3,0.1-0.4c3.1-4.4,9-2.6,11.6,1.2c0.7,0.8,1.2,1.9,1.4,3&#10;&#9;&#9;c0.1,0.8-1,0.8-1.2,0.1c-0.1-0.1-0.1-0.2-0.1-0.3c-0.2-0.8-0.6-1.6-1.1-2.3c-1-0.9-2.3-1.5-3.7-1.7c-1.7-0.4-4.9-0.7-6,1.2&#10;&#9;&#9;C276.3,283.9,275.2,283.3,275.6,282.5z"/>
	<path class="st13_dream-2" d="M274.2,278.2c5.3-3.6,13.8,1.1,14.5,7.2c0,0.3-0.2,0.6-0.4,0.6c0,0-0.1,0-0.1,0c-0.2,0.1-0.6,0.1-0.7-0.2&#10;&#9;&#9;c0,0,0-0.1,0-0.1c-2.2-5.1-6.6-8.8-12.4-6.5c0,0-0.1,0-0.1,0l-0.1,0C274.1,279.8,273.5,278.7,274.2,278.2z"/>
	<path class="st13_dream-2" d="M277.3,274.8c0,0,0.1-0.1,0.1-0.1c0.3-0.2,0.7-0.3,1.1-0.2c6.2-0.6,11.3,5.7,11.4,11.6c0,0.3-0.2,0.6-0.6,0.6&#10;&#9;&#9;c0,0-0.1,0-0.1,0c-0.3,0.2-0.7,0.1-0.9-0.2c0,0-0.1-0.1-0.1-0.2c-0.9-2.6-1.4-5.5-3.4-7.5c-1.9-1.9-4.5-2.9-7.2-2.8&#10;&#9;&#9;C276.8,276,276.7,275,277.3,274.8z"/>
	<path class="st13_dream-2" d="M280.4,271.8c0.1-0.1,0.3-0.1,0.4-0.1c6.3,1.1,8.9,6.9,9.1,12.7v0.4c0,0.8-1.2,0.8-1.3,0l0,0c0,0,0,0,0-0.1&#10;&#9;&#9;s0-0.2,0-0.3c-0.4-5.2-3.1-10-8.4-11.4c-0.4,0-0.6-0.4-0.6-0.7C279.7,272,280,271.8,280.4,271.8z"/>
	<path class="st13_dream-2" d="M289.4,270L289.4,270C289.4,270,289.4,269.9,289.4,270c0.1-0.8-1-0.9-1.2-0.3v0.1c0,0,0,0.1,0,0.1&#10;&#9;&#9;c-0.7,5.5-1,11.1-0.9,16.6c0,0.4,0.3,0.6,0.7,0.6c0.2,0,0.4-0.1,0.5-0.3c0.3,0.2,0.8,0,0.9-0.3c0-0.1,0.1-0.1,0.1-0.2&#10;&#9;&#9;C289.8,280.9,289.8,275.4,289.4,270z"/>
	<path class="st13_dream-2" d="M301.9,282.5c-0.1-0.1-0.1-0.2-0.2-0.2c0-0.1,0-0.3-0.1-0.4c-3.1-4.4-9-2.6-11.6,1.2c-0.7,0.8-1.2,1.9-1.4,3&#10;&#9;&#9;c-0.1,0.8,1,0.8,1.2,0.1c0.1-0.1,0.1-0.2,0.1-0.3c0.2-0.8,0.6-1.6,1.1-2.3c1-0.9,2.3-1.5,3.7-1.7c1.7-0.4,4.9-0.7,6,1.2&#10;&#9;&#9;C301.2,283.9,302.3,283.3,301.9,282.5z"/>
	<path class="st13_dream-2" d="M303.3,278.2c-5.3-3.6-13.8,1.1-14.5,7.2c0.1,0.4,0.5,0.7,0.9,0.6c0.2,0,0.3-0.1,0.5-0.3&#10;&#9;&#9;c2.2-5.1,6.6-8.8,12.4-6.5c0,0,0.1,0,0.1,0l0.1,0C303.3,279.8,304,278.7,303.3,278.2z"/>
	<path class="st13_dream-2" d="M300.2,274.8l-0.1-0.1c-0.3-0.2-0.7-0.3-1.1-0.2c-6.2-0.6-11.3,5.7-11.4,11.6c0,0.3,0.2,0.6,0.6,0.6&#10;&#9;&#9;c0,0,0.1,0,0.1,0c0.3,0.2,0.7,0.1,0.9-0.2c0,0,0.1-0.1,0.1-0.1c0.9-2.6,1.4-5.5,3.4-7.5c1.9-1.9,4.6-2.9,7.3-2.7&#10;&#9;&#9;C300.7,276,300.8,275,300.2,274.8z"/>
	<path class="st13_dream-2" d="M297.1,271.8c-0.1-0.1-0.3-0.1-0.4-0.1c-6.3,1.1-8.9,6.9-9.1,12.7c0,0.1,0,0.3,0,0.4c0,0.8,1.2,0.8,1.3,0l0,0&#10;&#9;&#9;c0,0,0-0.1,0-0.1c0-0.1,0-0.2,0-0.3c0.4-5.2,3.1-10,8.4-11.4c0.4-0.1,0.6-0.4,0.6-0.7C297.8,272,297.5,271.8,297.1,271.8z"/>
	<path class="st7_dream-2" d="M286.1,308.2c0-0.3,1.1-12.7,0.9-16.4s-0.4-7.6-0.4-7.6h3.3c0,0,0.9,21.6,2.2,24L286.1,308.2z"/>
	
		<linearGradient id="SVGID_00000091716717103430808200000007991841176947799725_-dream-2" gradientUnits="userSpaceOnUse" x1="298.38" y1="181.505" x2="336.05" y2="181.505" gradientTransform="matrix(1 0 0 -1 0 502)">
		<stop offset="1.000000e-02" style="stop-color:#FCCA4C;stop-opacity:0"/>
		<stop offset="1" style="stop-color:#552800;stop-opacity:0.5"/>
	</linearGradient>
	<polygon style="fill:url(#SVGID_00000091716717103430808200000007991841176947799725_);" points="334.4,311.7 298.4,320.1 &#10;&#9;&#9;308.6,329.3 336,314.1 &#9;"/>
	<path class="st13_dream-2" d="M332.2,276.1L332.2,276.1C332.2,276,332.2,276,332.2,276.1c-0.1-0.9,1-0.9,1.2-0.3c0,0,0,0.1,0,0.1&#10;&#9;&#9;c0,0,0,0.1,0,0.1c0.7,5.5,1,11.1,0.9,16.6c0,0.4-0.3,0.6-0.7,0.6c-0.2,0-0.4-0.1-0.5-0.3c-0.3,0.2-0.7,0.1-0.9-0.3&#10;&#9;&#9;c0-0.1-0.1-0.1-0.1-0.2C331.8,286.9,331.8,281.5,332.2,276.1z"/>
	<path class="st13_dream-2" d="M319.6,288.6c0-0.1,0.1-0.1,0.2-0.2c0-0.1,0-0.3,0.1-0.4c3.1-4.4,9-2.6,11.6,1.2c0.7,0.8,1.2,1.9,1.4,3&#10;&#9;&#9;c0.1,0.8-1,0.8-1.2,0.1c-0.1-0.1-0.1-0.2-0.1-0.3c-0.2-0.8-0.6-1.6-1.1-2.3c-1-0.9-2.3-1.5-3.7-1.7c-1.7-0.3-4.9-0.7-6,1.2&#10;&#9;&#9;C320.4,290,319.2,289.3,319.6,288.6z"/>
	<path class="st13_dream-2" d="M318.2,284.3c5.3-3.6,13.8,1.1,14.5,7.2c0.1,0.3-0.1,0.6-0.4,0.6c-0.1,0-0.1,0-0.2,0&#10;&#9;&#9;c-0.2,0.1-0.5,0.1-0.7-0.2c0,0,0-0.1-0.1-0.1c-2.2-5.1-6.6-8.8-12.4-6.5c0,0-0.1,0-0.1,0l-0.1,0&#10;&#9;&#9;C318.2,285.9,317.6,284.8,318.2,284.3z"/>
	<path class="st13_dream-2" d="M321.4,280.8c0,0,0.1-0.1,0.1-0.1c0.3-0.2,0.7-0.3,1.1-0.2c6.2-0.6,11.3,5.7,11.4,11.6c0,0.3-0.3,0.6-0.6,0.6&#10;&#9;&#9;c0,0-0.1,0-0.1,0c-0.3,0.2-0.7,0.1-0.9-0.2c0,0-0.1-0.1-0.1-0.1c-0.9-2.6-1.4-5.5-3.4-7.5c-1.9-1.9-4.5-2.9-7.2-2.8&#10;&#9;&#9;C320.8,282.1,320.8,281.1,321.4,280.8z"/>
	<path class="st13_dream-2" d="M324.5,277.9c0.1-0.1,0.3-0.1,0.4-0.1c6.3,1.1,8.9,6.9,9.1,12.7c0,0.1,0,0.3,0,0.4c0,0.8-1.2,0.8-1.3,0l0,0&#10;&#9;&#9;c0,0,0-0.1,0-0.1c0-0.1,0-0.2,0-0.3c-0.4-5.2-3.1-10-8.4-11.4c-0.4,0-0.6-0.4-0.6-0.7S324.1,277.9,324.5,277.9z"/>
	<path class="st13_dream-2" d="M333.4,276.1L333.4,276.1C333.4,276,333.4,276,333.4,276.1c0.1-0.9-1-0.9-1.2-0.3c0,0,0,0.1,0,0.1&#10;&#9;&#9;c0,0,0,0.1,0,0.1c-0.7,5.5-1,11.1-0.9,16.6c0,0.4,0.3,0.6,0.7,0.6c0.2,0,0.4-0.1,0.5-0.3c0.3,0.2,0.7,0.1,0.9-0.2&#10;&#9;&#9;c0-0.1,0.1-0.2,0.1-0.3C333.9,286.9,333.9,281.5,333.4,276.1z"/>
	<path class="st13_dream-2" d="M346,288.6c-0.1-0.1-0.1-0.2-0.2-0.2c0-0.1,0-0.3-0.1-0.4c-3.1-4.4-9-2.6-11.6,1.2c-0.7,0.8-1.2,1.9-1.4,3&#10;&#9;&#9;c-0.1,0.8,1,0.8,1.2,0.1c0.1-0.1,0.1-0.2,0.1-0.3c0.2-0.8,0.6-1.6,1.1-2.3c1-0.9,2.3-1.5,3.7-1.7c1.7-0.3,4.9-0.7,6,1.2&#10;&#9;&#9;C345.3,290,346.4,289.3,346,288.6z"/>
	<path class="st13_dream-2" d="M347.4,284.3c-5.3-3.6-13.8,1.1-14.5,7.2c-0.1,0.3,0.1,0.6,0.4,0.6c0.1,0,0.1,0,0.2,0&#10;&#9;&#9;c0.2,0.1,0.5,0.1,0.7-0.2c0,0,0-0.1,0.1-0.1c2.2-5.1,6.6-8.8,12.4-6.5c0,0,0.1,0,0.1,0l0.1,0C347.4,285.9,348,284.8,347.4,284.3z"/>
	<path class="st13_dream-2" d="M344.2,280.8c0,0-0.1-0.1-0.1-0.1c-0.3-0.2-0.7-0.3-1.1-0.2c-6.2-0.6-11.3,5.7-11.4,11.6&#10;&#9;&#9;c0,0.3,0.3,0.6,0.6,0.6c0,0,0.1,0,0.1,0c0.3,0.2,0.7,0.1,0.9-0.2c0,0,0.1-0.1,0.1-0.1c0.9-2.6,1.4-5.5,3.4-7.5&#10;&#9;&#9;c1.9-1.9,4.5-2.9,7.2-2.8C344.8,282.1,344.8,281.1,344.2,280.8z"/>
	<path class="st13_dream-2" d="M341.2,277.9c-0.1-0.1-0.3-0.1-0.4-0.1c-6.3,1.1-8.9,6.9-9.1,12.7v0.4c0,0.8,1.2,0.8,1.3,0l0,0&#10;&#9;&#9;c0,0,0-0.1,0-0.1s0-0.2,0-0.3c0.4-5.2,3.1-10,8.4-11.4c0.4,0,0.6-0.4,0.6-0.7S341.5,277.9,341.2,277.9L341.2,277.9z"/>
	<path class="st7_dream-2" d="M330.1,314.3c0-0.3,1.1-12.7,0.9-16.4s-0.4-7.6-0.4-7.6h3.3c0,0,0.9,21.6,2.1,24L330.1,314.3z"/>
	
		<linearGradient id="SVGID_00000083797759949223664240000000830962131372822915_-dream-2" gradientUnits="userSpaceOnUse" x1="266.81" y1="166.815" x2="304.48" y2="166.815" gradientTransform="matrix(1 0 0 -1 0 502)">
		<stop offset="1.000000e-02" style="stop-color:#FCCA4C;stop-opacity:0"/>
		<stop offset="1" style="stop-color:#552800;stop-opacity:0.5"/>
	</linearGradient>
	<polygon style="fill:url(#SVGID_00000083797759949223664240000000830962131372822915_);" points="302.9,326.4 266.8,334.8 &#10;&#9;&#9;277.1,344 304.5,328.8 &#9;"/>
	<path class="st13_dream-2" d="M300.6,290.8L300.6,290.8C300.6,290.7,300.6,290.7,300.6,290.8c-0.1-0.9,1-0.9,1.2-0.3c0,0,0,0.1,0,0.1&#10;&#9;&#9;c0,0,0,0.1,0,0.1c0.7,5.5,1,11.1,0.9,16.6c0,0.4-0.3,0.6-0.7,0.6c-0.2,0-0.4-0.1-0.5-0.3c-0.3,0.2-0.7,0.1-0.9-0.2&#10;&#9;&#9;c-0.1-0.1-0.1-0.2-0.1-0.3C300.2,301.6,300.2,296.2,300.6,290.8z"/>
	<path class="st13_dream-2" d="M288.1,303.3c0-0.1,0.1-0.1,0.2-0.2c0-0.1,0-0.3,0.1-0.4c3.1-4.4,9-2.6,11.6,1.2c0.7,0.8,1.2,1.9,1.4,3&#10;&#9;&#9;c0.1,0.8-1,0.8-1.2,0.1c-0.1-0.1-0.1-0.2-0.1-0.3c-0.2-0.8-0.6-1.6-1.1-2.3c-1-0.9-2.3-1.5-3.7-1.7c-1.7-0.3-4.9-0.7-6,1.2&#10;&#9;&#9;C288.8,304.7,287.7,304,288.1,303.3z"/>
	<path class="st13_dream-2" d="M286.7,299c5.3-3.6,13.8,1.1,14.5,7.2c-0.1,0.4-0.5,0.7-0.9,0.6c-0.2,0-0.3-0.1-0.5-0.3&#10;&#9;&#9;c-2.2-5.1-6.6-8.8-12.4-6.5c0,0-0.1,0-0.1,0l-0.1,0C286.6,300.6,286,299.5,286.7,299z"/>
	<path class="st13_dream-2" d="M289.8,295.5c0,0,0.1-0.1,0.1-0.1c0.3-0.2,0.7-0.3,1.1-0.2c6.2-0.6,11.3,5.7,11.4,11.6c0,0.3-0.3,0.6-0.6,0.6&#10;&#9;&#9;c0,0-0.1,0-0.1,0c-0.3,0.2-0.7,0.1-0.9-0.2c0,0-0.1-0.1-0.1-0.1c-0.9-2.6-1.4-5.5-3.4-7.5c-1.9-1.9-4.5-2.9-7.2-2.8&#10;&#9;&#9;C289.3,296.8,289.2,295.8,289.8,295.5z"/>
	<path class="st13_dream-2" d="M292.9,292.6c0.1-0.1,0.3-0.1,0.4-0.1c6.3,1.1,8.9,6.9,9.1,12.7c0,0.1,0,0.3,0,0.4c0,0.8-1.2,0.8-1.3,0&#10;&#9;&#9;c0,0,0,0,0,0c0,0,0-0.1,0-0.1c0-0.1,0-0.2,0-0.3c-0.4-5.2-3.1-10-8.4-11.4c-0.3-0.1-0.5-0.5-0.4-0.8&#10;&#9;&#9;C292.4,292.8,292.6,292.6,292.9,292.6z"/>
	<path class="st13_dream-2" d="M301.9,290.8L301.9,290.8L301.9,290.8c0.1-0.9-1-0.9-1.2-0.3c0,0,0,0.1,0,0.1c0,0,0,0.1,0,0.1&#10;&#9;&#9;c-0.7,5.5-1,11.1-0.9,16.6c0,0.4,0.3,0.6,0.7,0.6c0.2,0,0.4-0.1,0.5-0.3c0.3,0.2,0.7,0.1,0.9-0.2c0-0.1,0.1-0.2,0.1-0.3&#10;&#9;&#9;C302.3,301.6,302.3,296.2,301.9,290.8z"/>
	<path class="st13_dream-2" d="M314.4,303.3c0-0.1-0.1-0.1-0.2-0.2c0-0.1,0-0.3-0.1-0.4c-3.1-4.4-9-2.6-11.6,1.2c-0.7,0.8-1.2,1.9-1.4,3&#10;&#9;&#9;c-0.1,0.8,1,0.8,1.2,0.1c0.1-0.1,0.1-0.2,0.1-0.3c0.2-0.8,0.6-1.6,1.1-2.3c1-0.9,2.3-1.5,3.7-1.7c1.7-0.3,4.9-0.7,6,1.2&#10;&#9;&#9;C313.7,304.7,314.8,304,314.4,303.3z"/>
	<path class="st13_dream-2" d="M315.8,299c-5.3-3.6-13.8,1.1-14.5,7.2c-0.1,0.3,0.1,0.6,0.4,0.6c0.1,0,0.1,0,0.2,0c0.2,0.1,0.5,0.1,0.7-0.2&#10;&#9;&#9;c0,0,0-0.1,0.1-0.1c2.2-5.1,6.6-8.8,12.4-6.5c0,0,0.1,0,0.1,0l0.1,0C315.8,300.6,316.5,299.5,315.8,299z"/>
	<path class="st13_dream-2" d="M312.7,295.5c0,0-0.1-0.1-0.1-0.1c-0.3-0.2-0.7-0.3-1.1-0.2c-6.2-0.6-11.3,5.7-11.4,11.6&#10;&#9;&#9;c0,0.3,0.3,0.6,0.6,0.6c0,0,0.1,0,0.1,0c0.3,0.2,0.7,0.1,0.9-0.2c0,0,0.1-0.1,0.1-0.1c0.9-2.6,1.4-5.5,3.4-7.5&#10;&#9;&#9;c1.9-1.9,4.5-2.9,7.2-2.8C313.2,296.8,313.3,295.8,312.7,295.5z"/>
	<path class="st13_dream-2" d="M309.6,292.6c-0.1-0.1-0.3-0.1-0.4-0.1c-6.3,1.1-8.9,6.9-9.1,12.7v0.4c0,0.8,1.2,0.8,1.3,0c0,0,0,0,0,0&#10;&#9;&#9;c0,0,0-0.1,0-0.1s0-0.2,0-0.3c0.4-5.2,3.1-10,8.4-11.4c0.3-0.1,0.5-0.5,0.4-0.8C310.1,292.8,309.9,292.6,309.6,292.6z"/>
	<path class="st7_dream-2" d="M298.6,329c0-0.3,1.1-12.7,0.9-16.4S299,305,299,305h3.3c0,0,0.9,21.6,2.1,24H298.6z"/>
</g>
</svg>